# xmcd
#
# Track frame offsets:
#	150
#	12905
#	28770
#	46830
#	59100
#	75002
#	85872
#	103832
#	119527
#	135492
#	152987
#	169095
#
# Disc length: 2472 seconds
# Revision: 0
# Processed by: cddbd v1.5.2PL0 Copyright (c) Steve Scherf et al.
# Submitted via: dBpowerAMP V12.0
#
DISCID=9409a60c
DTITLE=Roger Miron - 12 Grands Succès
DYEAR=1900
DGENRE=Country
TTITLE0=Ne change pas ton numéro
TTITLE1=Combien faut-il de larmes
TTITLE2=Comme tu es belle
TTITLE3=Ne laisse pas voler ton coeur
TTITLE4=Je tiendrai ta main
TTITLE5=À qui l'p'tit coeur
TTITLE6=Merci mon Dieu de ma jeunesse
TTITLE7=Ne me quitte pas
TTITLE8=On n'arrose pas les fleurs avec des larmes
TTITLE9=Tourne, tourne, tourne
TTITLE10=Troubadour tyrolien
TTITLE11=C'est jour de fête pour toi maman
EXTD=
EXTT0=
EXTT1=
EXTT2=
EXTT3=
EXTT4=
EXTT5=
EXTT6=
EXTT7=
EXTT8=
EXTT9=
EXTT10=
EXTT11=
PLAYORDER=
